<mxfile host="app.diagrams.net" modified="2024-04-29T14:43:00.710Z" agent="Mozilla/5.0 (Macintosh; Intel Mac OS X 10_15_7) AppleWebKit/537.36 (KHTML, like Gecko) Chrome/124.0.0.0 Safari/537.36" version="24.3.1" etag="KI-ABYrI19zP6ospH0ur" type="github">
  <diagram name="Page-1" id="N_nt1ZIHaKl-KB4vVq9l">
    <mxGraphModel>
      <root>
        <mxCell id="0" />
        <mxCell id="1" parent="0" />
      </root>
    </mxGraphModel>
  </diagram>
</mxfile>
